<svg xmlns="http://www.w3.org/2000/svg" viewBox="0 0 24 24" fill="white">
  <!-- Avatar -->
  <path d="M12 4c-2.21 0-4 1.79-4 4s1.79 4 4 4 4-1.79 4-4-1.79-4-4-4zm0 6c-1.1 0-2-.9-2-2s.9-2 2-2 2 .9 2 2-.9 2-2 2z"/>
  <path d="M12 13c-2.67 0-8 1.34-8 4v3h16v-3c0-2.66-5.33-4-8-4zm6 5H6v-.99c.2-.72 3.3-2.01 6-2.01s5.8 1.29 6 2v1z"/>
  
  <!-- Pencil -->
  <g transform="translate(13, 8) scale(0.5)">
    <path d="M3 17.25V21h3.75L17.81 9.94l-3.75-3.75L3 17.25z"/>
    <path d="M20.71 7.04c.39-.39.39-1.02 0-1.41l-2.34-2.34c-.39-.39-1.02-.39-1.41 0l-1.84 1.83 3.75 3.75 1.84-1.83z"/>
  </g>
</svg>